{
  "title" : "",
  "description" : "",
  "author" : "",
  "targetLoudness" : -18.0,
  "shouldApplyLoudnessNormalization" : true,
  "videoFormatFrameRate" : 30,
  "audioFormatSampleRate" : 44100,
  "width" : 1440.0,
  "height" : 900.0,
  "version" : "4.0",
  "editRate" : 30,
  "authoringClientName" :  {
    "name" : "Camtasia",
    "platform" : "Mac",
    "version" : "2020.0.2"
  },
  "sourceBin" : [
    {
      "id" : 1,
      "src" : "./recordings/1589853008.937712/设计稿宽度(1).trec",
      "rect" : [0, 0, 1440, 900],
      "lastMod" : "20200519T014852",
      "sourceTracks" : [
        {
          "range" : [0, 90],
          "type" : 0,
          "editRate" : 30,
          "trackRect" : [0, 0, 1440, 900],
          "sampleRate" : 30,
          "bitDepth" : 0,
          "numChannels" : 0,
          "integratedLUFS" : 100.0,
          "peakLevel" : -1.0,
          "metaData" : "2b7b6a01-7a1f-11e2-83d0-0017f200be7f;2b7b6af0-7a1f-11e2-83d0-0017f200be7f;2b7b6af1-7a1f-11e2-83d0-0017f200be7f;2b7b6af2-7a1f-11e2-83d0-0017f200be7f;2b7b6af3-7a1f-11e2-83d0-0017f200be7f;2b7b6af5-7a1f-11e2-83d0-0017f200be7f;2b7b6af6-7a1f-11e2-83d0-0017f200be7f;2b7b6af7-7a1f-11e2-83d0-0017f200be7f;2b7b6af8-7a1f-11e2-83d0-0017f200be7f;2b7b6af9-7a1f-11e2-83d0-0017f200be7f;2b7b6afa-7a1f-11e2-83d0-0017f200be7f;2b7b6afb-7a1f-11e2-83d0-0017f200be7f;2b7b6afc-7a1f-11e2-83d0-0017f200be7f;"
        }
      ],
      "metadata" : {
        "timeAdded" : "20200519T014853.056383"
      }
    },
    {
      "id" : 2,
      "src" : "./recordings/1589853737.116720/设置宽度.trec",
      "rect" : [0, 0, 1440, 900],
      "lastMod" : "20200519T020040",
      "sourceTracks" : [
        {
          "range" : [0, 219],
          "type" : 0,
          "editRate" : 30,
          "trackRect" : [0, 0, 1440, 900],
          "sampleRate" : 30,
          "bitDepth" : 0,
          "numChannels" : 0,
          "integratedLUFS" : 100.0,
          "peakLevel" : -1.0,
          "metaData" : "2b7b6a01-7a1f-11e2-83d0-0017f200be7f;2b7b6af0-7a1f-11e2-83d0-0017f200be7f;2b7b6af1-7a1f-11e2-83d0-0017f200be7f;2b7b6af2-7a1f-11e2-83d0-0017f200be7f;2b7b6af3-7a1f-11e2-83d0-0017f200be7f;2b7b6af5-7a1f-11e2-83d0-0017f200be7f;2b7b6af6-7a1f-11e2-83d0-0017f200be7f;2b7b6af7-7a1f-11e2-83d0-0017f200be7f;2b7b6af8-7a1f-11e2-83d0-0017f200be7f;2b7b6af9-7a1f-11e2-83d0-0017f200be7f;2b7b6afa-7a1f-11e2-83d0-0017f200be7f;2b7b6afb-7a1f-11e2-83d0-0017f200be7f;2b7b6afc-7a1f-11e2-83d0-0017f200be7f;"
        }
      ],
      "metadata" : {
        "timeAdded" : "20200519T020040.616042"
      }
    },
    {
      "id" : 3,
      "src" : "./recordings/1589854253.152142/查看标注.trec",
      "rect" : [0, 0, 1440, 900],
      "lastMod" : "20200519T020740",
      "sourceTracks" : [
        {
          "range" : [0, 189],
          "type" : 0,
          "editRate" : 30,
          "trackRect" : [0, 0, 1440, 900],
          "sampleRate" : 30,
          "bitDepth" : 0,
          "numChannels" : 0,
          "integratedLUFS" : 100.0,
          "peakLevel" : -1.0,
          "metaData" : "2b7b6a01-7a1f-11e2-83d0-0017f200be7f;2b7b6af0-7a1f-11e2-83d0-0017f200be7f;2b7b6af1-7a1f-11e2-83d0-0017f200be7f;2b7b6af2-7a1f-11e2-83d0-0017f200be7f;2b7b6af3-7a1f-11e2-83d0-0017f200be7f;2b7b6af5-7a1f-11e2-83d0-0017f200be7f;2b7b6af6-7a1f-11e2-83d0-0017f200be7f;2b7b6af7-7a1f-11e2-83d0-0017f200be7f;2b7b6af8-7a1f-11e2-83d0-0017f200be7f;2b7b6af9-7a1f-11e2-83d0-0017f200be7f;2b7b6afa-7a1f-11e2-83d0-0017f200be7f;2b7b6afb-7a1f-11e2-83d0-0017f200be7f;2b7b6afc-7a1f-11e2-83d0-0017f200be7f;"
        }
      ],
      "metadata" : {
        "timeAdded" : "20200519T020740.708300"
      }
    },
    {
      "id" : 4,
      "src" : "./recordings/1589855520.842193/砌砖1.trec",
      "rect" : [0, 0, 1440, 900],
      "lastMod" : "20200519T022249",
      "sourceTracks" : [
        {
          "range" : [0, 4580],
          "type" : 0,
          "editRate" : 30,
          "trackRect" : [0, 0, 1440, 900],
          "sampleRate" : 29,
          "bitDepth" : 0,
          "numChannels" : 0,
          "integratedLUFS" : 100.0,
          "peakLevel" : -1.0,
          "metaData" : "2b7b6a01-7a1f-11e2-83d0-0017f200be7f;2b7b6af0-7a1f-11e2-83d0-0017f200be7f;2b7b6af1-7a1f-11e2-83d0-0017f200be7f;2b7b6af2-7a1f-11e2-83d0-0017f200be7f;2b7b6af3-7a1f-11e2-83d0-0017f200be7f;2b7b6af5-7a1f-11e2-83d0-0017f200be7f;2b7b6af6-7a1f-11e2-83d0-0017f200be7f;2b7b6af7-7a1f-11e2-83d0-0017f200be7f;2b7b6af8-7a1f-11e2-83d0-0017f200be7f;2b7b6af9-7a1f-11e2-83d0-0017f200be7f;2b7b6afa-7a1f-11e2-83d0-0017f200be7f;2b7b6afb-7a1f-11e2-83d0-0017f200be7f;2b7b6afc-7a1f-11e2-83d0-0017f200be7f;"
        }
      ],
      "metadata" : {
        "timeAdded" : "20200519T022250.122886"
      }
    },
    {
      "id" : 5,
      "src" : "./recordings/1589856844.334469/砌砖.trec",
      "rect" : [0, 0, 1440, 900],
      "lastMod" : "20200519T025401",
      "sourceTracks" : [
        {
          "range" : [0, 5237],
          "type" : 0,
          "editRate" : 30,
          "trackRect" : [0, 0, 1440, 900],
          "sampleRate" : 29,
          "bitDepth" : 0,
          "numChannels" : 0,
          "integratedLUFS" : 100.0,
          "peakLevel" : -1.0,
          "metaData" : "2b7b6a01-7a1f-11e2-83d0-0017f200be7f;2b7b6af0-7a1f-11e2-83d0-0017f200be7f;2b7b6af1-7a1f-11e2-83d0-0017f200be7f;2b7b6af2-7a1f-11e2-83d0-0017f200be7f;2b7b6af3-7a1f-11e2-83d0-0017f200be7f;2b7b6af5-7a1f-11e2-83d0-0017f200be7f;2b7b6af6-7a1f-11e2-83d0-0017f200be7f;2b7b6af7-7a1f-11e2-83d0-0017f200be7f;2b7b6af8-7a1f-11e2-83d0-0017f200be7f;2b7b6af9-7a1f-11e2-83d0-0017f200be7f;2b7b6afa-7a1f-11e2-83d0-0017f200be7f;2b7b6afb-7a1f-11e2-83d0-0017f200be7f;2b7b6afc-7a1f-11e2-83d0-0017f200be7f;"
        }
      ],
      "metadata" : {
        "timeAdded" : "20200519T025402.280113"
      }
    },
    {
      "id" : 6,
      "src" : "./recordings/1589857802.500980/代码生成.trec",
      "rect" : [0, 0, 1440, 900],
      "lastMod" : "20200519T030815",
      "sourceTracks" : [
        {
          "range" : [0, 710],
          "type" : 0,
          "editRate" : 30,
          "trackRect" : [0, 0, 1440, 900],
          "sampleRate" : 29,
          "bitDepth" : 0,
          "numChannels" : 0,
          "integratedLUFS" : 100.0,
          "peakLevel" : -1.0,
          "metaData" : "2b7b6a01-7a1f-11e2-83d0-0017f200be7f;2b7b6af0-7a1f-11e2-83d0-0017f200be7f;2b7b6af1-7a1f-11e2-83d0-0017f200be7f;2b7b6af2-7a1f-11e2-83d0-0017f200be7f;2b7b6af3-7a1f-11e2-83d0-0017f200be7f;2b7b6af5-7a1f-11e2-83d0-0017f200be7f;2b7b6af6-7a1f-11e2-83d0-0017f200be7f;2b7b6af7-7a1f-11e2-83d0-0017f200be7f;2b7b6af8-7a1f-11e2-83d0-0017f200be7f;2b7b6af9-7a1f-11e2-83d0-0017f200be7f;2b7b6afa-7a1f-11e2-83d0-0017f200be7f;2b7b6afb-7a1f-11e2-83d0-0017f200be7f;2b7b6afc-7a1f-11e2-83d0-0017f200be7f;"
        }
      ],
      "metadata" : {
        "timeAdded" : "20200519T030816.282252"
      }
    },
    {
      "id" : 7,
      "src" : "./media/1589859496.037551/pexels-photo-3147624.jpeg",
      "rect" : [0, 0, 1880, 1253],
      "lastMod" : "20200519T032244",
      "sourceTracks" : [
        {
          "range" : [0, 1],
          "type" : 1,
          "editRate" : 600,
          "trackRect" : [0, 0, 1880, 1253],
          "sampleRate" : 0,
          "bitDepth" : 0,
          "numChannels" : 0,
          "integratedLUFS" : 100.0,
          "peakLevel" : -1.0,
          "metaData" : ""
        }
      ],
      "metadata" : {
        "timeAdded" : "20200519T032346.240735"
      }
    },
    {
      "id" : 8,
      "src" : "./media/1589863178.782865/614c_0b30_eb6b_f0c40cb8e492181180f5fa03fcffd0ed.mp3",
      "rect" : [0, 0, 0, 0],
      "lastMod" : "20200519T043557",
      "sourceTracks" : [
        {
          "range" : [0, 9031680],
          "type" : 2,
          "editRate" : 44100,
          "trackRect" : [0, 0, 0, 0],
          "sampleRate" : 44100,
          "bitDepth" : 0,
          "numChannels" : 2,
          "integratedLUFS" : -7.50245874440353,
          "peakLevel" : 1.0,
          "metaData" : ""
        }
      ],
      "metadata" : {
        "timeAdded" : "20200519T043634.753847"
      }
    }
  ],
  "timeline" : {
    "id" : 9,
    "sceneTrack" : {
      "scenes" : [
        {
          "duration" : 149.4,
          "title" : "",
          "type" : "",
          "csml" : {
            "tracks" : [
              {
                "trackIndex" : 0,
                "medias" : [
                  {
                    "id" : 10,
                    "_type" : "IMFile",
                    "src" : 7,
                    "trackNumber" : 0,
                    "trimStartSum" : 0,
                    "attributes" : {
                      "ident" : "pexels-photo-3147624"
                    },
                    "parameters" : {
                      "scale0" : {
                        "type" : "double",
                        "defaultValue" : 0.718276137270551,
                        "interp" : "eioe"
                      },
                      "scale1" : {
                        "type" : "double",
                        "defaultValue" : 0.718276137270551,
                        "interp" : "eioe"
                      },
                      "sourceCrop0" : {
                        "type" : "double",
                        "defaultValue" : 0.0,
                        "interp" : "eioe"
                      },
                      "sourceCrop1" : {
                        "type" : "double",
                        "defaultValue" : 0.0,
                        "interp" : "eioe"
                      },
                      "sourceCrop2" : {
                        "type" : "double",
                        "defaultValue" : 0.0,
                        "interp" : "eioe"
                      },
                      "sourceCrop3" : {
                        "type" : "double",
                        "defaultValue" : 0.0,
                        "interp" : "eioe"
                      },
                      "geometryCrop0" : {
                        "type" : "double",
                        "defaultValue" : 0.0,
                        "interp" : "eioe"
                      },
                      "geometryCrop1" : {
                        "type" : "double",
                        "defaultValue" : 0.0,
                        "interp" : "eioe"
                      },
                      "geometryCrop2" : {
                        "type" : "double",
                        "defaultValue" : 0.0,
                        "interp" : "eioe"
                      },
                      "geometryCrop3" : {
                        "type" : "double",
                        "defaultValue" : 0.0,
                        "interp" : "eioe"
                      }
                    },
                    "effects" : [

                    ],
                    "start" : 0,
                    "duration" : 150,
                    "mediaStart" : 0,
                    "mediaDuration" : 1,
                    "scalar" : 1,
                    "metadata" : {
                      "clipSpeedAttribute" : false,
                      "default-scale" : "0.718276",
                      "effectApplied" : "none",
                      "lockAspectRatio" : true
                    },
                    "animationTracks" : {

                    }
                  },
                  {
                    "id" : 11,
                    "_type" : "ScreenVMFile",
                    "src" : 1,
                    "trackNumber" : 0,
                    "attributes" : {
                      "ident" : "设计稿宽度(1)"
                    },
                    "parameters" : {
                      "sourceCrop0" : {
                        "type" : "double",
                        "defaultValue" : 0.0,
                        "interp" : "eioe"
                      },
                      "sourceCrop1" : {
                        "type" : "double",
                        "defaultValue" : 0.0,
                        "interp" : "eioe"
                      },
                      "sourceCrop2" : {
                        "type" : "double",
                        "defaultValue" : 0.0,
                        "interp" : "eioe"
                      },
                      "sourceCrop3" : {
                        "type" : "double",
                        "defaultValue" : 0.0,
                        "interp" : "eioe"
                      },
                      "geometryCrop0" : {
                        "type" : "double",
                        "defaultValue" : 0.0,
                        "interp" : "eioe"
                      },
                      "geometryCrop1" : {
                        "type" : "double",
                        "defaultValue" : 0.0,
                        "interp" : "eioe"
                      },
                      "geometryCrop2" : {
                        "type" : "double",
                        "defaultValue" : 0.0,
                        "interp" : "eioe"
                      },
                      "geometryCrop3" : {
                        "type" : "double",
                        "defaultValue" : 0.0,
                        "interp" : "eioe"
                      },
                      "cursorScale" : {
                        "type" : "double",
                        "defaultValue" : 1.0,
                        "interp" : "linr"
                      },
                      "cursorOpacity" : {
                        "type" : "double",
                        "defaultValue" : 1.0,
                        "interp" : "linr"
                      }
                    },
                    "effects" : [

                    ],
                    "start" : 150,
                    "duration" : 90,
                    "mediaStart" : 0,
                    "mediaDuration" : 90,
                    "scalar" : 1,
                    "metadata" : {
                      "clipSpeedAttribute" : false,
                      "default-scale" : "1",
                      "effectApplied" : "none",
                      "lockAspectRatio" : true
                    },
                    "animationTracks" : {

                    }
                  },
                  {
                    "id" : 12,
                    "_type" : "ScreenVMFile",
                    "src" : 2,
                    "trackNumber" : 0,
                    "attributes" : {
                      "ident" : "设置宽度"
                    },
                    "parameters" : {
                      "sourceCrop0" : {
                        "type" : "double",
                        "defaultValue" : 0.0,
                        "interp" : "eioe"
                      },
                      "sourceCrop1" : {
                        "type" : "double",
                        "defaultValue" : 0.0,
                        "interp" : "eioe"
                      },
                      "sourceCrop2" : {
                        "type" : "double",
                        "defaultValue" : 0.0,
                        "interp" : "eioe"
                      },
                      "sourceCrop3" : {
                        "type" : "double",
                        "defaultValue" : 0.0,
                        "interp" : "eioe"
                      },
                      "geometryCrop0" : {
                        "type" : "double",
                        "defaultValue" : 0.0,
                        "interp" : "eioe"
                      },
                      "geometryCrop1" : {
                        "type" : "double",
                        "defaultValue" : 0.0,
                        "interp" : "eioe"
                      },
                      "geometryCrop2" : {
                        "type" : "double",
                        "defaultValue" : 0.0,
                        "interp" : "eioe"
                      },
                      "geometryCrop3" : {
                        "type" : "double",
                        "defaultValue" : 0.0,
                        "interp" : "eioe"
                      },
                      "cursorScale" : {
                        "type" : "double",
                        "defaultValue" : 1.0,
                        "interp" : "linr"
                      },
                      "cursorOpacity" : {
                        "type" : "double",
                        "defaultValue" : 1.0,
                        "interp" : "linr"
                      }
                    },
                    "effects" : [

                    ],
                    "start" : 240,
                    "duration" : 219,
                    "mediaStart" : 0,
                    "mediaDuration" : 219,
                    "scalar" : 1,
                    "metadata" : {
                      "clipSpeedAttribute" : false,
                      "default-scale" : "1",
                      "effectApplied" : "none",
                      "lockAspectRatio" : true
                    },
                    "animationTracks" : {

                    }
                  },
                  {
                    "id" : 13,
                    "_type" : "ScreenVMFile",
                    "src" : 3,
                    "trackNumber" : 0,
                    "attributes" : {
                      "ident" : "查看标注"
                    },
                    "parameters" : {
                      "sourceCrop0" : {
                        "type" : "double",
                        "defaultValue" : 0.0,
                        "interp" : "eioe"
                      },
                      "sourceCrop1" : {
                        "type" : "double",
                        "defaultValue" : 0.0,
                        "interp" : "eioe"
                      },
                      "sourceCrop2" : {
                        "type" : "double",
                        "defaultValue" : 0.0,
                        "interp" : "eioe"
                      },
                      "sourceCrop3" : {
                        "type" : "double",
                        "defaultValue" : 0.0,
                        "interp" : "eioe"
                      },
                      "geometryCrop0" : {
                        "type" : "double",
                        "defaultValue" : 0.0,
                        "interp" : "eioe"
                      },
                      "geometryCrop1" : {
                        "type" : "double",
                        "defaultValue" : 0.0,
                        "interp" : "eioe"
                      },
                      "geometryCrop2" : {
                        "type" : "double",
                        "defaultValue" : 0.0,
                        "interp" : "eioe"
                      },
                      "geometryCrop3" : {
                        "type" : "double",
                        "defaultValue" : 0.0,
                        "interp" : "eioe"
                      },
                      "cursorScale" : {
                        "type" : "double",
                        "defaultValue" : 1.0,
                        "interp" : "linr"
                      },
                      "cursorOpacity" : {
                        "type" : "double",
                        "defaultValue" : 1.0,
                        "interp" : "linr"
                      }
                    },
                    "effects" : [

                    ],
                    "start" : 459,
                    "duration" : 189,
                    "mediaStart" : 0,
                    "mediaDuration" : 189,
                    "scalar" : 1,
                    "metadata" : {
                      "clipSpeedAttribute" : false,
                      "default-scale" : "1",
                      "effectApplied" : "none",
                      "lockAspectRatio" : true
                    },
                    "animationTracks" : {

                    }
                  },
                  {
                    "id" : 14,
                    "_type" : "StitchedMedia",
                    "minMediaStart" : 0,
                    "attributes" : {
                      "ident" : "砌砖1",
                      "gain" : 1.0,
                      "mixToMono" : false
                    },
                    "parameters" : {
                      "sourceCrop0" : 0.0,
                      "sourceCrop1" : 0.0,
                      "sourceCrop2" : 0.0,
                      "sourceCrop3" : 0.0,
                      "geometryCrop0" : 0.0,
                      "geometryCrop1" : 0.0,
                      "geometryCrop2" : 0.0,
                      "geometryCrop3" : 0.0,
                      "cursorOpacity" : 1.0,
                      "cursorScale" : 1.0
                    },
                    "medias" : [
                        {
                          "id" : 15,
                          "_type" : "ScreenVMFile",
                          "src" : 4,
                          "trackNumber" : 0,
                          "attributes" : {
                            "ident" : "砌砖1"
                          },
                          "parameters" : {
                            "sourceCrop0" : {
                              "type" : "double",
                              "defaultValue" : 0.0,
                              "interp" : "eioe"
                            },
                            "sourceCrop1" : {
                              "type" : "double",
                              "defaultValue" : 0.0,
                              "interp" : "eioe"
                            },
                            "sourceCrop2" : {
                              "type" : "double",
                              "defaultValue" : 0.0,
                              "interp" : "eioe"
                            },
                            "sourceCrop3" : {
                              "type" : "double",
                              "defaultValue" : 0.0,
                              "interp" : "eioe"
                            },
                            "geometryCrop0" : {
                              "type" : "double",
                              "defaultValue" : 0.0,
                              "interp" : "eioe"
                            },
                            "geometryCrop1" : {
                              "type" : "double",
                              "defaultValue" : 0.0,
                              "interp" : "eioe"
                            },
                            "geometryCrop2" : {
                              "type" : "double",
                              "defaultValue" : 0.0,
                              "interp" : "eioe"
                            },
                            "geometryCrop3" : {
                              "type" : "double",
                              "defaultValue" : 0.0,
                              "interp" : "eioe"
                            },
                            "cursorScale" : {
                              "type" : "double",
                              "defaultValue" : 0.0,
                              "interp" : "linr"
                            },
                            "cursorOpacity" : {
                              "type" : "double",
                              "defaultValue" : 0.0,
                              "interp" : "linr"
                            }
                          },
                          "effects" : [

                          ],
                          "start" : 0,
                          "duration" : 2927,
                          "mediaStart" : 0,
                          "mediaDuration" : 2927,
                          "scalar" : 1,
                          "metadata" : {
                            "clipSpeedAttribute" : false,
                            "default-scale" : "1",
                            "effectApplied" : "none",
                            "lockAspectRatio" : true
                          },
                          "animationTracks" : {

                          }
                        },
                        {
                          "id" : 16,
                          "_type" : "ScreenVMFile",
                          "src" : 4,
                          "trackNumber" : 0,
                          "attributes" : {
                            "ident" : "砌砖1"
                          },
                          "parameters" : {
                            "sourceCrop0" : {
                              "type" : "double",
                              "defaultValue" : 0.0,
                              "interp" : "eioe"
                            },
                            "sourceCrop1" : {
                              "type" : "double",
                              "defaultValue" : 0.0,
                              "interp" : "eioe"
                            },
                            "sourceCrop2" : {
                              "type" : "double",
                              "defaultValue" : 0.0,
                              "interp" : "eioe"
                            },
                            "sourceCrop3" : {
                              "type" : "double",
                              "defaultValue" : 0.0,
                              "interp" : "eioe"
                            },
                            "geometryCrop0" : {
                              "type" : "double",
                              "defaultValue" : 0.0,
                              "interp" : "eioe"
                            },
                            "geometryCrop1" : {
                              "type" : "double",
                              "defaultValue" : 0.0,
                              "interp" : "eioe"
                            },
                            "geometryCrop2" : {
                              "type" : "double",
                              "defaultValue" : 0.0,
                              "interp" : "eioe"
                            },
                            "geometryCrop3" : {
                              "type" : "double",
                              "defaultValue" : 0.0,
                              "interp" : "eioe"
                            },
                            "cursorScale" : {
                              "type" : "double",
                              "defaultValue" : 0.0,
                              "interp" : "linr"
                            },
                            "cursorOpacity" : {
                              "type" : "double",
                              "defaultValue" : 0.0,
                              "interp" : "linr"
                            }
                          },
                          "effects" : [

                          ],
                          "start" : 2927,
                          "duration" : 186,
                          "mediaStart" : 3061,
                          "mediaDuration" : 186,
                          "scalar" : 1,
                          "metadata" : {
                            "clipSpeedAttribute" : false,
                            "default-scale" : "1",
                            "effectApplied" : "none",
                            "lockAspectRatio" : true
                          },
                          "animationTracks" : {

                          }
                        },
                        {
                          "id" : 17,
                          "_type" : "ScreenVMFile",
                          "src" : 4,
                          "trackNumber" : 0,
                          "attributes" : {
                            "ident" : "砌砖1"
                          },
                          "parameters" : {
                            "sourceCrop0" : {
                              "type" : "double",
                              "defaultValue" : 0.0,
                              "interp" : "eioe"
                            },
                            "sourceCrop1" : {
                              "type" : "double",
                              "defaultValue" : 0.0,
                              "interp" : "eioe"
                            },
                            "sourceCrop2" : {
                              "type" : "double",
                              "defaultValue" : 0.0,
                              "interp" : "eioe"
                            },
                            "sourceCrop3" : {
                              "type" : "double",
                              "defaultValue" : 0.0,
                              "interp" : "eioe"
                            },
                            "geometryCrop0" : {
                              "type" : "double",
                              "defaultValue" : 0.0,
                              "interp" : "eioe"
                            },
                            "geometryCrop1" : {
                              "type" : "double",
                              "defaultValue" : 0.0,
                              "interp" : "eioe"
                            },
                            "geometryCrop2" : {
                              "type" : "double",
                              "defaultValue" : 0.0,
                              "interp" : "eioe"
                            },
                            "geometryCrop3" : {
                              "type" : "double",
                              "defaultValue" : 0.0,
                              "interp" : "eioe"
                            },
                            "cursorScale" : {
                              "type" : "double",
                              "defaultValue" : 0.0,
                              "interp" : "linr"
                            },
                            "cursorOpacity" : {
                              "type" : "double",
                              "defaultValue" : 0.0,
                              "interp" : "linr"
                            }
                          },
                          "effects" : [

                          ],
                          "start" : 3113,
                          "duration" : 361,
                          "mediaStart" : 3320,
                          "mediaDuration" : 361,
                          "scalar" : 1,
                          "metadata" : {
                            "clipSpeedAttribute" : false,
                            "default-scale" : "1",
                            "effectApplied" : "none",
                            "lockAspectRatio" : true
                          },
                          "animationTracks" : {

                          }
                        },
                        {
                          "id" : 18,
                          "_type" : "ScreenVMFile",
                          "src" : 4,
                          "trackNumber" : 0,
                          "attributes" : {
                            "ident" : "砌砖1"
                          },
                          "parameters" : {
                            "sourceCrop0" : {
                              "type" : "double",
                              "defaultValue" : 0.0,
                              "interp" : "eioe"
                            },
                            "sourceCrop1" : {
                              "type" : "double",
                              "defaultValue" : 0.0,
                              "interp" : "eioe"
                            },
                            "sourceCrop2" : {
                              "type" : "double",
                              "defaultValue" : 0.0,
                              "interp" : "eioe"
                            },
                            "sourceCrop3" : {
                              "type" : "double",
                              "defaultValue" : 0.0,
                              "interp" : "eioe"
                            },
                            "geometryCrop0" : {
                              "type" : "double",
                              "defaultValue" : 0.0,
                              "interp" : "eioe"
                            },
                            "geometryCrop1" : {
                              "type" : "double",
                              "defaultValue" : 0.0,
                              "interp" : "eioe"
                            },
                            "geometryCrop2" : {
                              "type" : "double",
                              "defaultValue" : 0.0,
                              "interp" : "eioe"
                            },
                            "geometryCrop3" : {
                              "type" : "double",
                              "defaultValue" : 0.0,
                              "interp" : "eioe"
                            },
                            "cursorScale" : {
                              "type" : "double",
                              "defaultValue" : 0.0,
                              "interp" : "linr"
                            },
                            "cursorOpacity" : {
                              "type" : "double",
                              "defaultValue" : 0.0,
                              "interp" : "linr"
                            }
                          },
                          "effects" : [

                          ],
                          "start" : 3474,
                          "duration" : 833,
                          "mediaStart" : 3747,
                          "mediaDuration" : 833,
                          "scalar" : 1,
                          "metadata" : {
                            "clipSpeedAttribute" : false,
                            "default-scale" : "1",
                            "effectApplied" : "none",
                            "lockAspectRatio" : true
                          },
                          "animationTracks" : {

                          }
                        }
                    ],
                    "effects" : [

                    ],
                    "start" : 648,
                    "duration" : 1518,
                    "mediaStart" : 0,
                    "mediaDuration" : 3794,
                    "scalar" : "759/1897",
                    "metadata" : {
                      "clipSpeedAttribute" : true,
                      "default-scale" : "1",
                      "effectApplied" : "none",
                      "lockAspectRatio" : true
                    },
                    "animationTracks" : {

                    }
                  },
                  {
                    "id" : 19,
                    "_type" : "StitchedMedia",
                    "minMediaStart" : 0,
                    "attributes" : {
                      "ident" : "砌砖",
                      "gain" : 1.0,
                      "mixToMono" : false
                    },
                    "parameters" : {
                      "sourceCrop0" : 0.0,
                      "sourceCrop1" : 0.0,
                      "sourceCrop2" : 0.0,
                      "sourceCrop3" : 0.0,
                      "geometryCrop0" : 0.0,
                      "geometryCrop1" : 0.0,
                      "geometryCrop2" : 0.0,
                      "geometryCrop3" : 0.0,
                      "cursorOpacity" : 1.0,
                      "cursorScale" : 1.0
                    },
                    "medias" : [
                        {
                          "id" : 20,
                          "_type" : "ScreenVMFile",
                          "src" : 5,
                          "trackNumber" : 0,
                          "attributes" : {
                            "ident" : "砌砖"
                          },
                          "parameters" : {
                            "sourceCrop0" : {
                              "type" : "double",
                              "defaultValue" : 0.0,
                              "interp" : "eioe"
                            },
                            "sourceCrop1" : {
                              "type" : "double",
                              "defaultValue" : 0.0,
                              "interp" : "eioe"
                            },
                            "sourceCrop2" : {
                              "type" : "double",
                              "defaultValue" : 0.0,
                              "interp" : "eioe"
                            },
                            "sourceCrop3" : {
                              "type" : "double",
                              "defaultValue" : 0.0,
                              "interp" : "eioe"
                            },
                            "geometryCrop0" : {
                              "type" : "double",
                              "defaultValue" : 0.0,
                              "interp" : "eioe"
                            },
                            "geometryCrop1" : {
                              "type" : "double",
                              "defaultValue" : 0.0,
                              "interp" : "eioe"
                            },
                            "geometryCrop2" : {
                              "type" : "double",
                              "defaultValue" : 0.0,
                              "interp" : "eioe"
                            },
                            "geometryCrop3" : {
                              "type" : "double",
                              "defaultValue" : 0.0,
                              "interp" : "eioe"
                            },
                            "cursorScale" : {
                              "type" : "double",
                              "defaultValue" : 0.0,
                              "interp" : "linr"
                            },
                            "cursorOpacity" : {
                              "type" : "double",
                              "defaultValue" : 0.0,
                              "interp" : "linr"
                            }
                          },
                          "effects" : [

                          ],
                          "start" : 0,
                          "duration" : 1058,
                          "mediaStart" : 0,
                          "mediaDuration" : 1058,
                          "scalar" : 1,
                          "metadata" : {
                            "clipSpeedAttribute" : false,
                            "default-scale" : "1",
                            "effectApplied" : "none",
                            "lockAspectRatio" : true
                          },
                          "animationTracks" : {

                          }
                        },
                        {
                          "id" : 21,
                          "_type" : "ScreenVMFile",
                          "src" : 5,
                          "trackNumber" : 0,
                          "attributes" : {
                            "ident" : "砌砖"
                          },
                          "parameters" : {
                            "sourceCrop0" : {
                              "type" : "double",
                              "defaultValue" : 0.0,
                              "interp" : "eioe"
                            },
                            "sourceCrop1" : {
                              "type" : "double",
                              "defaultValue" : 0.0,
                              "interp" : "eioe"
                            },
                            "sourceCrop2" : {
                              "type" : "double",
                              "defaultValue" : 0.0,
                              "interp" : "eioe"
                            },
                            "sourceCrop3" : {
                              "type" : "double",
                              "defaultValue" : 0.0,
                              "interp" : "eioe"
                            },
                            "geometryCrop0" : {
                              "type" : "double",
                              "defaultValue" : 0.0,
                              "interp" : "eioe"
                            },
                            "geometryCrop1" : {
                              "type" : "double",
                              "defaultValue" : 0.0,
                              "interp" : "eioe"
                            },
                            "geometryCrop2" : {
                              "type" : "double",
                              "defaultValue" : 0.0,
                              "interp" : "eioe"
                            },
                            "geometryCrop3" : {
                              "type" : "double",
                              "defaultValue" : 0.0,
                              "interp" : "eioe"
                            },
                            "cursorScale" : {
                              "type" : "double",
                              "defaultValue" : 0.0,
                              "interp" : "linr"
                            },
                            "cursorOpacity" : {
                              "type" : "double",
                              "defaultValue" : 0.0,
                              "interp" : "linr"
                            }
                          },
                          "effects" : [

                          ],
                          "start" : 1058,
                          "duration" : 1626,
                          "mediaStart" : 1145,
                          "mediaDuration" : 1626,
                          "scalar" : 1,
                          "metadata" : {
                            "clipSpeedAttribute" : false,
                            "default-scale" : "1",
                            "effectApplied" : "none",
                            "lockAspectRatio" : true
                          },
                          "animationTracks" : {

                          }
                        },
                        {
                          "id" : 22,
                          "_type" : "ScreenVMFile",
                          "src" : 5,
                          "trackNumber" : 0,
                          "attributes" : {
                            "ident" : "砌砖"
                          },
                          "parameters" : {
                            "sourceCrop0" : {
                              "type" : "double",
                              "defaultValue" : 0.0,
                              "interp" : "eioe"
                            },
                            "sourceCrop1" : {
                              "type" : "double",
                              "defaultValue" : 0.0,
                              "interp" : "eioe"
                            },
                            "sourceCrop2" : {
                              "type" : "double",
                              "defaultValue" : 0.0,
                              "interp" : "eioe"
                            },
                            "sourceCrop3" : {
                              "type" : "double",
                              "defaultValue" : 0.0,
                              "interp" : "eioe"
                            },
                            "geometryCrop0" : {
                              "type" : "double",
                              "defaultValue" : 0.0,
                              "interp" : "eioe"
                            },
                            "geometryCrop1" : {
                              "type" : "double",
                              "defaultValue" : 0.0,
                              "interp" : "eioe"
                            },
                            "geometryCrop2" : {
                              "type" : "double",
                              "defaultValue" : 0.0,
                              "interp" : "eioe"
                            },
                            "geometryCrop3" : {
                              "type" : "double",
                              "defaultValue" : 0.0,
                              "interp" : "eioe"
                            },
                            "cursorScale" : {
                              "type" : "double",
                              "defaultValue" : 0.0,
                              "interp" : "linr"
                            },
                            "cursorOpacity" : {
                              "type" : "double",
                              "defaultValue" : 0.0,
                              "interp" : "linr"
                            }
                          },
                          "effects" : [

                          ],
                          "start" : 2684,
                          "duration" : 769,
                          "mediaStart" : 2893,
                          "mediaDuration" : 769,
                          "scalar" : 1,
                          "metadata" : {
                            "clipSpeedAttribute" : false,
                            "default-scale" : "1",
                            "effectApplied" : "none",
                            "lockAspectRatio" : true
                          },
                          "animationTracks" : {

                          }
                        },
                        {
                          "id" : 23,
                          "_type" : "ScreenVMFile",
                          "src" : 5,
                          "trackNumber" : 0,
                          "attributes" : {
                            "ident" : "砌砖"
                          },
                          "parameters" : {
                            "sourceCrop0" : {
                              "type" : "double",
                              "defaultValue" : 0.0,
                              "interp" : "eioe"
                            },
                            "sourceCrop1" : {
                              "type" : "double",
                              "defaultValue" : 0.0,
                              "interp" : "eioe"
                            },
                            "sourceCrop2" : {
                              "type" : "double",
                              "defaultValue" : 0.0,
                              "interp" : "eioe"
                            },
                            "sourceCrop3" : {
                              "type" : "double",
                              "defaultValue" : 0.0,
                              "interp" : "eioe"
                            },
                            "geometryCrop0" : {
                              "type" : "double",
                              "defaultValue" : 0.0,
                              "interp" : "eioe"
                            },
                            "geometryCrop1" : {
                              "type" : "double",
                              "defaultValue" : 0.0,
                              "interp" : "eioe"
                            },
                            "geometryCrop2" : {
                              "type" : "double",
                              "defaultValue" : 0.0,
                              "interp" : "eioe"
                            },
                            "geometryCrop3" : {
                              "type" : "double",
                              "defaultValue" : 0.0,
                              "interp" : "eioe"
                            },
                            "cursorScale" : {
                              "type" : "double",
                              "defaultValue" : 0.0,
                              "interp" : "linr"
                            },
                            "cursorOpacity" : {
                              "type" : "double",
                              "defaultValue" : 0.0,
                              "interp" : "linr"
                            }
                          },
                          "effects" : [

                          ],
                          "start" : 3453,
                          "duration" : 1368,
                          "mediaStart" : 3869,
                          "mediaDuration" : 1368,
                          "scalar" : 1,
                          "metadata" : {
                            "clipSpeedAttribute" : false,
                            "default-scale" : "1",
                            "effectApplied" : "none",
                            "lockAspectRatio" : true
                          },
                          "animationTracks" : {

                          }
                        }
                    ],
                    "effects" : [

                    ],
                    "start" : 2166,
                    "duration" : 1606,
                    "mediaStart" : 0,
                    "mediaDuration" : 4821,
                    "scalar" : "1606/4821",
                    "metadata" : {
                      "clipSpeedAttribute" : true,
                      "default-scale" : "1",
                      "effectApplied" : "none",
                      "lockAspectRatio" : true
                    },
                    "animationTracks" : {

                    }
                  },
                  {
                    "id" : 24,
                    "_type" : "ScreenVMFile",
                    "src" : 6,
                    "trackNumber" : 0,
                    "attributes" : {
                      "ident" : "代码生成"
                    },
                    "parameters" : {
                      "sourceCrop0" : {
                        "type" : "double",
                        "defaultValue" : 0.0,
                        "interp" : "eioe"
                      },
                      "sourceCrop1" : {
                        "type" : "double",
                        "defaultValue" : 0.0,
                        "interp" : "eioe"
                      },
                      "sourceCrop2" : {
                        "type" : "double",
                        "defaultValue" : 0.0,
                        "interp" : "eioe"
                      },
                      "sourceCrop3" : {
                        "type" : "double",
                        "defaultValue" : 0.0,
                        "interp" : "eioe"
                      },
                      "geometryCrop0" : {
                        "type" : "double",
                        "defaultValue" : 0.0,
                        "interp" : "eioe"
                      },
                      "geometryCrop1" : {
                        "type" : "double",
                        "defaultValue" : 0.0,
                        "interp" : "eioe"
                      },
                      "geometryCrop2" : {
                        "type" : "double",
                        "defaultValue" : 0.0,
                        "interp" : "eioe"
                      },
                      "geometryCrop3" : {
                        "type" : "double",
                        "defaultValue" : 0.0,
                        "interp" : "eioe"
                      },
                      "cursorScale" : {
                        "type" : "double",
                        "defaultValue" : 1.0,
                        "interp" : "linr"
                      },
                      "cursorOpacity" : {
                        "type" : "double",
                        "defaultValue" : 1.0,
                        "interp" : "linr"
                      }
                    },
                    "effects" : [

                    ],
                    "start" : 3772,
                    "duration" : 710,
                    "mediaStart" : 0,
                    "mediaDuration" : 710,
                    "scalar" : 1,
                    "metadata" : {
                      "clipSpeedAttribute" : false,
                      "default-scale" : "1",
                      "effectApplied" : "none",
                      "lockAspectRatio" : true
                    },
                    "animationTracks" : {

                    }
                  }
                ]
              },
              {
                "trackIndex" : 1,
                "medias" : [
                  {
                    "id" : 25,
                    "_type" : "Callout",
                    "def" : {
                      "kind" : "remix",
                      "shape" : "text-rectangle",
                      "style" : "basic",
                      "fill-color-blue" : 1.0,
                      "fill-color-green" : 1.0,
                      "fill-color-opacity" : 1.0,
                      "fill-color-red" : 1.0,
                      "height" : 409.999993354711,
                      "line-spacing" : 0.0,
                      "stroke-color-blue" : 0.56078431372549,
                      "stroke-color-green" : 0.686274509803922,
                      "stroke-color-opacity" : 1.0,
                      "stroke-color-red" : 0.0196078431372549,
                      "stroke-width" : 2.0,
                      "tail-x" : 104.41357489596,
                      "tail-y" : -97.1888036000539,
                      "width" : 456.17285020808,
                      "word-wrap" : 1.0,
                      "fill-style" : "solid",
                      "horizontal-alignment" : "left",
                      "resize-behavior" : "resizeText",
                      "stroke-style" : "solid",
                      "text" : "Three simple steps:\n\n1. Set the design width\n2. \"Lay bricks\"\n3. Generate codes\n\nLet's go!",
                      "vertical-alignment" : "center",
                      "font" : {
                        "color-blue" : 0.266666666666667,
                        "color-green" : 0.231372549019608,
                        "color-opacity" : 1.0,
                        "color-red" : 0.184313725490196,
                        "size" : 64.0,
                        "tracking" : 0.0,
                        "name" : "Montserrat",
                        "weight" : "Regular"
                      },
                      "textAttributes" : {
                        "type" : "textAttributeList",
                        "keyframes" : [
                          {
                            "endTime" : 0,
                            "time" : 0,
                            "value" : [{"name":"fontItalic","rangeEnd":89,"rangeStart":0,"value":0,"valueType":"int"},{"name":"kerning","rangeEnd":24,"rangeStart":20,"value":0,"valueType":"double"},{"name":"fontName","rangeEnd":64,"rangeStart":62,"value":"Montserrat","valueType":"string"},{"name":"fgColor","rangeEnd":61,"rangeStart":44,"value":"(47,59,68,255)","valueType":"color"},{"name":"fontSize","rangeEnd":89,"rangeStart":0,"value":40,"valueType":"double"},{"name":"kerning","rangeEnd":64,"rangeStart":62,"value":0,"valueType":"double"},{"name":"fontWeight","rangeEnd":89,"rangeStart":0,"value":400,"valueType":"int"},{"name":"fgColor","rangeEnd":20,"rangeStart":19,"value":"(46,58,68,255)","valueType":"color"},{"name":"fgColor","rangeEnd":78,"rangeStart":64,"value":"(46,58,68,255)","valueType":"color"},{"name":"fgColor","rangeEnd":24,"rangeStart":20,"value":"(47,59,68,255)","valueType":"color"},{"name":"fontName","rangeEnd":89,"rangeStart":64,"value":"PingFang SC","valueType":"string"},{"name":"kerning","rangeEnd":61,"rangeStart":44,"value":0,"valueType":"double"},{"name":"fontName","rangeEnd":61,"rangeStart":20,"value":"Montserrat","valueType":"string"},{"name":"fontName","rangeEnd":20,"rangeStart":0,"value":"PingFang SC","valueType":"string"},{"name":"fgColor","rangeEnd":44,"rangeStart":24,"value":"(46,58,68,255)","valueType":"color"},{"name":"fgColor","rangeEnd":89,"rangeStart":80,"value":"(46,58,68,255)","valueType":"color"},{"name":"kerning","rangeEnd":80,"rangeStart":78,"value":0,"valueType":"double"},{"name":"fgColor","rangeEnd":62,"rangeStart":61,"value":"(46,58,68,255)","valueType":"color"},{"name":"fgColor","rangeEnd":64,"rangeStart":62,"value":"(47,59,68,255)","valueType":"color"},{"name":"fontName","rangeEnd":62,"rangeStart":61,"value":"PingFang SC","valueType":"string"},{"name":"fgColor","rangeEnd":19,"rangeStart":0,"value":"(45,57,68,255)","valueType":"color"},{"name":"strikethrough","rangeEnd":89,"rangeStart":0,"value":0,"valueType":"int"},{"name":"underline","rangeEnd":89,"rangeStart":0,"value":0,"valueType":"int"},{"name":"fgColor","rangeEnd":80,"rangeStart":78,"value":"(47,59,68,255)","valueType":"color"}],
                            "duration" : 0
                          }
                        ]
                      }
                    },
                    "attributes" : {
                      "autoRotateText" : true
                    },
                    "parameters" : {
                      "translation0" : 295.686286407785,
                      "translation1" : -0.433769215480083,
                      "sourceCrop0" : 0.0,
                      "sourceCrop1" : 0.0,
                      "sourceCrop2" : 0.0,
                      "sourceCrop3" : 0.0,
                      "geometryCrop0" : 0.0,
                      "geometryCrop1" : 0.0,
                      "geometryCrop2" : 0.0,
                      "geometryCrop3" : 0.0
                    },
                    "effects" : [

                    ],
                    "start" : 0,
                    "duration" : 150,
                    "mediaStart" : 0,
                    "mediaDuration" : 150,
                    "scalar" : 1,
                    "metadata" : {
                      "AppliedThemeId" : "",
                      "clipSpeedAttribute" : false,
                      "default-scale" : "1",
                      "default-text" : "{\\rtf1\\ansi\\ansicpg936\\cocoartf2512\n\\cocoatextscaling0\\cocoaplatform0{\\fonttbl\\f0\\fnil\\fcharset134 PingFangSC-Regular;\\f1\\fnil\\fcharset0 Montserrat-Regular;}\n{\\colortbl;\\red255\\green255\\blue255;\\red36\\green45\\blue52;}\n{\\*\\expandedcolortbl;;\\cssrgb\\c18431\\c23137\\c26667;}\n\\pard\\tx560\\tx1120\\tx1680\\tx2240\\tx2800\\tx3360\\tx3920\\tx4480\\tx5040\\tx5600\\tx6160\\tx6720\\pardirnatural\\qc\\partightenfactor0\n\n\\f0\\fs128 \\cf2 \\expnd0\\expndtw0\\kerning0\n\\ulnone \\'bc\\'f2\\'b5\\'a5\\'c8\\'fd\\'b2\\'bd\\'a3\\'ba\n\\f1 \\\n1. \n\\f0 \\'c9\\'e8\\'d6\\'c3\\'c9\\'e8\\'bc\\'c6\\'b8\\'e5\\'bf\\'ed\\'b6\\'c8\n\\f1 \\\n2. \"\n\\f0 \\'c6\\'f6\\'d7\\'a9\n\\f1 \"\\\n3. \n\\f0 \\'c9\\'fa\\'b3\\'c9\\'b4\\'fa\\'c2\\'eb\n\\f1 \\\n\n\\f0 \\'c8\\'c3\\'ce\\'d2\\'c3\\'c7\\'bf\\'aa\\'ca\\'bc\\'b0\\'c9}",
                      "effectApplied" : "none",
                      "lockAspectRatio" : true
                    },
                    "animationTracks" : {

                    }
                  },
                  {
                    "id" : 26,
                    "_type" : "Callout",
                    "def" : {
                      "kind" : "remix",
                      "shape" : "text-rectangle",
                      "style" : "basic",
                      "fill-color-blue" : 1.0,
                      "fill-color-green" : 1.0,
                      "fill-color-opacity" : 1.0,
                      "fill-color-red" : 1.0,
                      "height" : 110.266123439662,
                      "line-spacing" : 0.0,
                      "stroke-color-blue" : 0.56078431372549,
                      "stroke-color-green" : 0.686274509803922,
                      "stroke-color-opacity" : 1.0,
                      "stroke-color-red" : 0.0196078431372549,
                      "stroke-width" : 2.0,
                      "tail-x" : -544.926317614424,
                      "tail-y" : -39.8669382801689,
                      "width" : 1439.85263522885,
                      "word-wrap" : 1.0,
                      "fill-style" : "solid",
                      "horizontal-alignment" : "center",
                      "resize-behavior" : "resizeText",
                      "stroke-style" : "solid",
                      "text" : "第一步，确定设计稿的宽度并进行设置\nThe first step is to get the width of the design draft and set it",
                      "vertical-alignment" : "center",
                      "font" : {
                        "color-blue" : 0.266666666666667,
                        "color-green" : 0.231372549019608,
                        "color-opacity" : 1.0,
                        "color-red" : 0.184313725490196,
                        "size" : 64.0,
                        "tracking" : 0.0,
                        "name" : "Montserrat",
                        "weight" : "Regular"
                      },
                      "textAttributes" : {
                        "type" : "textAttributeList",
                        "keyframes" : [
                          {
                            "endTime" : 0,
                            "time" : 0,
                            "value" : [{"name":"strikethrough","rangeEnd":117,"rangeStart":0,"value":0,"valueType":"int"},{"name":"fontName","rangeEnd":117,"rangeStart":0,"value":"PingFang SC","valueType":"string"},{"name":"underline","rangeEnd":117,"rangeStart":0,"value":0,"valueType":"int"},{"name":"fgColor","rangeEnd":117,"rangeStart":0,"value":"(47,59,68,255)","valueType":"color"},{"name":"fontSize","rangeEnd":117,"rangeStart":0,"value":24,"valueType":"double"},{"name":"fontWeight","rangeEnd":117,"rangeStart":0,"value":400,"valueType":"int"},{"name":"kerning","rangeEnd":117,"rangeStart":0,"value":0,"valueType":"double"},{"name":"fontItalic","rangeEnd":117,"rangeStart":0,"value":0,"valueType":"int"}],
                            "duration" : 0
                          }
                        ]
                      }
                    },
                    "attributes" : {
                      "autoRotateText" : true
                    },
                    "parameters" : {
                      "translation0" : 0.0736823855753528,
                      "translation1" : 381.930045076285,
                      "sourceCrop0" : 0.0,
                      "sourceCrop1" : 0.0,
                      "sourceCrop2" : 0.0,
                      "sourceCrop3" : 0.0,
                      "geometryCrop0" : 0.0,
                      "geometryCrop1" : 0.0,
                      "geometryCrop2" : 0.0,
                      "geometryCrop3" : 0.0
                    },
                    "effects" : [

                    ],
                    "start" : 150,
                    "duration" : 309,
                    "mediaStart" : 0,
                    "mediaDuration" : 309,
                    "scalar" : 1,
                    "metadata" : {
                      "AppliedThemeId" : "",
                      "clipSpeedAttribute" : false,
                      "default-scale" : "1",
                      "default-text" : "{\\rtf1\\ansi\\ansicpg936\\cocoartf2512\n\\cocoatextscaling0\\cocoaplatform0{\\fonttbl\\f0\\fnil\\fcharset134 PingFangSC-Regular;}\n{\\colortbl;\\red255\\green255\\blue255;\\red36\\green45\\blue52;}\n{\\*\\expandedcolortbl;;\\cssrgb\\c18431\\c23137\\c26667;}\n\\pard\\tx560\\tx1120\\tx1680\\tx2240\\tx2800\\tx3360\\tx3920\\tx4480\\tx5040\\tx5600\\tx6160\\tx6720\\pardirnatural\\qc\\partightenfactor0\n\n\\f0\\fs128 \\cf2 \\expnd0\\expndtw0\\kerning0\n\\ulnone \\'b5\\'da\\'d2\\'bb\\'b2\\'bd\\'a3\\'ac\\'c8\\'b7\\'b6\\'a8\\'c9\\'e8\\'bc\\'c6\\'b8\\'e5\\'b5\\'c4\\'bf\\'ed\\'b6\\'c8\\'b2\\'a2\\'bd\\'f8\\'d0\\'d0\\'c9\\'e8\\'d6\\'c3}",
                      "effectApplied" : "none",
                      "lockAspectRatio" : true
                    },
                    "animationTracks" : {

                    }
                  },
                  {
                    "id" : 27,
                    "_type" : "Callout",
                    "def" : {
                      "kind" : "remix",
                      "shape" : "text-rectangle",
                      "style" : "basic",
                      "fill-color-blue" : {
                        "type" : "double",
                        "defaultValue" : 1.0,
                        "interp" : "linr"
                      },
                      "fill-color-green" : {
                        "type" : "double",
                        "defaultValue" : 1.0,
                        "interp" : "linr"
                      },
                      "fill-color-opacity" : {
                        "type" : "double",
                        "defaultValue" : 1.0,
                        "interp" : "linr"
                      },
                      "fill-color-red" : {
                        "type" : "double",
                        "defaultValue" : 1.0,
                        "interp" : "linr"
                      },
                      "height" : {
                        "type" : "double",
                        "defaultValue" : 110.266123439662,
                        "interp" : "linr"
                      },
                      "line-spacing" : {
                        "type" : "double",
                        "defaultValue" : 0.0,
                        "interp" : "linr"
                      },
                      "stroke-color-blue" : {
                        "type" : "double",
                        "defaultValue" : 0.56078431372549,
                        "interp" : "linr"
                      },
                      "stroke-color-green" : {
                        "type" : "double",
                        "defaultValue" : 0.686274509803922,
                        "interp" : "linr"
                      },
                      "stroke-color-opacity" : {
                        "type" : "double",
                        "defaultValue" : 1.0,
                        "interp" : "linr"
                      },
                      "stroke-color-red" : {
                        "type" : "double",
                        "defaultValue" : 0.0196078431372549,
                        "interp" : "linr"
                      },
                      "stroke-width" : {
                        "type" : "double",
                        "defaultValue" : 2.0,
                        "interp" : "linr"
                      },
                      "tail-x" : {
                        "type" : "double",
                        "defaultValue" : -544.926317614424,
                        "interp" : "linr"
                      },
                      "tail-y" : {
                        "type" : "double",
                        "defaultValue" : -39.8669382801689,
                        "interp" : "linr"
                      },
                      "width" : {
                        "type" : "double",
                        "defaultValue" : 1439.85263522885,
                        "interp" : "linr"
                      },
                      "word-wrap" : {
                        "type" : "double",
                        "defaultValue" : 1.0,
                        "interp" : "linr"
                      },
                      "fill-style" : "solid",
                      "horizontal-alignment" : "center",
                      "resize-behavior" : "resizeText",
                      "stroke-style" : "solid",
                      "text" : "第二步，根据设计稿的标注信息在ncbrick\"砌砖\"\nThe second step is to \"lay bricks\" in ncbrick according to the annotation information of the design draft",
                      "vertical-alignment" : "center",
                      "font" : {
                        "color-blue" : {
                          "type" : "double",
                          "defaultValue" : 0.266666666666667,
                          "interp" : "linr"
                        },
                        "color-green" : {
                          "type" : "double",
                          "defaultValue" : 0.231372549019608,
                          "interp" : "linr"
                        },
                        "color-opacity" : {
                          "type" : "double",
                          "defaultValue" : 1.0,
                          "interp" : "linr"
                        },
                        "color-red" : {
                          "type" : "double",
                          "defaultValue" : 0.184313725490196,
                          "interp" : "linr"
                        },
                        "size" : {
                          "type" : "double",
                          "defaultValue" : 64.0,
                          "interp" : "linr"
                        },
                        "tracking" : {
                          "type" : "double",
                          "defaultValue" : 0.0,
                          "interp" : "linr"
                        },
                        "name" : "Montserrat",
                        "weight" : "Regular"
                      },
                      "textAttributes" : {
                        "type" : "textAttributeList",
                        "keyframes" : [
                          {
                            "endTime" : 0,
                            "time" : 0,
                            "value" : [{"name":"fgColor","rangeEnd":166,"rangeStart":0,"value":"(47,59,68,255)","valueType":"color"},{"name":"fontSize","rangeEnd":166,"rangeStart":0,"value":24,"valueType":"double"},{"name":"fontName","rangeEnd":166,"rangeStart":0,"value":"PingFang SC","valueType":"string"},{"name":"fontWeight","rangeEnd":166,"rangeStart":0,"value":400,"valueType":"int"},{"name":"kerning","rangeEnd":166,"rangeStart":0,"value":0,"valueType":"double"},{"name":"strikethrough","rangeEnd":166,"rangeStart":0,"value":0,"valueType":"int"},{"name":"underline","rangeEnd":166,"rangeStart":0,"value":0,"valueType":"int"},{"name":"fontItalic","rangeEnd":166,"rangeStart":0,"value":0,"valueType":"int"}],
                            "duration" : 0
                          }
                        ]
                      }
                    },
                    "attributes" : {
                      "autoRotateText" : true
                    },
                    "parameters" : {
                      "translation0" : {
                        "type" : "double",
                        "defaultValue" : 0.0736823855753528,
                        "interp" : "eioe"
                      },
                      "translation1" : {
                        "type" : "double",
                        "defaultValue" : 381.930045076285,
                        "interp" : "eioe"
                      },
                      "sourceCrop0" : {
                        "type" : "double",
                        "defaultValue" : 0.0,
                        "interp" : "eioe"
                      },
                      "sourceCrop1" : {
                        "type" : "double",
                        "defaultValue" : 0.0,
                        "interp" : "eioe"
                      },
                      "sourceCrop2" : {
                        "type" : "double",
                        "defaultValue" : 0.0,
                        "interp" : "eioe"
                      },
                      "sourceCrop3" : {
                        "type" : "double",
                        "defaultValue" : 0.0,
                        "interp" : "eioe"
                      },
                      "geometryCrop0" : {
                        "type" : "double",
                        "defaultValue" : 0.0,
                        "interp" : "eioe"
                      },
                      "geometryCrop1" : {
                        "type" : "double",
                        "defaultValue" : 0.0,
                        "interp" : "eioe"
                      },
                      "geometryCrop2" : {
                        "type" : "double",
                        "defaultValue" : 0.0,
                        "interp" : "eioe"
                      },
                      "geometryCrop3" : {
                        "type" : "double",
                        "defaultValue" : 0.0,
                        "interp" : "eioe"
                      }
                    },
                    "effects" : [

                    ],
                    "start" : 459,
                    "duration" : 3313,
                    "mediaStart" : 0,
                    "mediaDuration" : 3313,
                    "scalar" : 1,
                    "metadata" : {
                      "AppliedThemeId" : "",
                      "clipSpeedAttribute" : false,
                      "default-scale" : "1",
                      "default-text" : "{\\rtf1\\ansi\\ansicpg936\\cocoartf2512\n\\cocoatextscaling0\\cocoaplatform0{\\fonttbl\\f0\\fnil\\fcharset134 PingFangSC-Regular;}\n{\\colortbl;\\red255\\green255\\blue255;\\red36\\green45\\blue52;}\n{\\*\\expandedcolortbl;;\\cssrgb\\c18431\\c23137\\c26667;}\n\\pard\\tx560\\tx1120\\tx1680\\tx2240\\tx2800\\tx3360\\tx3920\\tx4480\\tx5040\\tx5600\\tx6160\\tx6720\\pardirnatural\\qc\\partightenfactor0\n\n\\f0\\fs128 \\cf2 \\expnd0\\expndtw0\\kerning0\n\\ulnone \\'b5\\'da\\'d2\\'bb\\'b2\\'bd\\'a3\\'ac\\'c8\\'b7\\'b6\\'a8\\'c9\\'e8\\'bc\\'c6\\'b8\\'e5\\'b5\\'c4\\'bf\\'ed\\'b6\\'c8\\'b2\\'a2\\'bd\\'f8\\'d0\\'d0\\'c9\\'e8\\'d6\\'c3}",
                      "effectApplied" : "none",
                      "lockAspectRatio" : true
                    },
                    "animationTracks" : {

                    }
                  },
                  {
                    "id" : 28,
                    "_type" : "Callout",
                    "def" : {
                      "kind" : "remix",
                      "shape" : "text-rectangle",
                      "style" : "basic",
                      "fill-color-blue" : {
                        "type" : "double",
                        "defaultValue" : 1.0,
                        "interp" : "linr"
                      },
                      "fill-color-green" : {
                        "type" : "double",
                        "defaultValue" : 1.0,
                        "interp" : "linr"
                      },
                      "fill-color-opacity" : {
                        "type" : "double",
                        "defaultValue" : 1.0,
                        "interp" : "linr"
                      },
                      "fill-color-red" : {
                        "type" : "double",
                        "defaultValue" : 1.0,
                        "interp" : "linr"
                      },
                      "height" : {
                        "type" : "double",
                        "defaultValue" : 110.266123439662,
                        "interp" : "linr"
                      },
                      "line-spacing" : {
                        "type" : "double",
                        "defaultValue" : 0.0,
                        "interp" : "linr"
                      },
                      "stroke-color-blue" : {
                        "type" : "double",
                        "defaultValue" : 0.56078431372549,
                        "interp" : "linr"
                      },
                      "stroke-color-green" : {
                        "type" : "double",
                        "defaultValue" : 0.686274509803922,
                        "interp" : "linr"
                      },
                      "stroke-color-opacity" : {
                        "type" : "double",
                        "defaultValue" : 1.0,
                        "interp" : "linr"
                      },
                      "stroke-color-red" : {
                        "type" : "double",
                        "defaultValue" : 0.0196078431372549,
                        "interp" : "linr"
                      },
                      "stroke-width" : {
                        "type" : "double",
                        "defaultValue" : 2.0,
                        "interp" : "linr"
                      },
                      "tail-x" : {
                        "type" : "double",
                        "defaultValue" : -544.926317614424,
                        "interp" : "linr"
                      },
                      "tail-y" : {
                        "type" : "double",
                        "defaultValue" : -39.8669382801689,
                        "interp" : "linr"
                      },
                      "width" : {
                        "type" : "double",
                        "defaultValue" : 1439.85263522885,
                        "interp" : "linr"
                      },
                      "word-wrap" : {
                        "type" : "double",
                        "defaultValue" : 1.0,
                        "interp" : "linr"
                      },
                      "fill-style" : "solid",
                      "horizontal-alignment" : "center",
                      "resize-behavior" : "resizeText",
                      "stroke-style" : "solid",
                      "text" : "最后一步，生成代码\nThe last step, generate code",
                      "vertical-alignment" : "center",
                      "font" : {
                        "color-blue" : {
                          "type" : "double",
                          "defaultValue" : 0.266666666666667,
                          "interp" : "linr"
                        },
                        "color-green" : {
                          "type" : "double",
                          "defaultValue" : 0.231372549019608,
                          "interp" : "linr"
                        },
                        "color-opacity" : {
                          "type" : "double",
                          "defaultValue" : 1.0,
                          "interp" : "linr"
                        },
                        "color-red" : {
                          "type" : "double",
                          "defaultValue" : 0.184313725490196,
                          "interp" : "linr"
                        },
                        "size" : {
                          "type" : "double",
                          "defaultValue" : 64.0,
                          "interp" : "linr"
                        },
                        "tracking" : {
                          "type" : "double",
                          "defaultValue" : 0.0,
                          "interp" : "linr"
                        },
                        "name" : "Montserrat",
                        "weight" : "Regular"
                      },
                      "textAttributes" : {
                        "type" : "textAttributeList",
                        "keyframes" : [
                          {
                            "endTime" : 0,
                            "time" : 0,
                            "value" : [{"name":"fgColor","rangeEnd":56,"rangeStart":0,"value":"(47,59,68,255)","valueType":"color"},{"name":"fontName","rangeEnd":56,"rangeStart":0,"value":"PingFang SC","valueType":"string"},{"name":"kerning","rangeEnd":56,"rangeStart":0,"value":0,"valueType":"double"},{"name":"fontWeight","rangeEnd":56,"rangeStart":0,"value":400,"valueType":"int"},{"name":"strikethrough","rangeEnd":56,"rangeStart":0,"value":0,"valueType":"int"},{"name":"fontItalic","rangeEnd":56,"rangeStart":0,"value":0,"valueType":"int"},{"name":"underline","rangeEnd":56,"rangeStart":0,"value":0,"valueType":"int"},{"name":"fontSize","rangeEnd":56,"rangeStart":0,"value":24,"valueType":"double"}],
                            "duration" : 0
                          }
                        ]
                      }
                    },
                    "attributes" : {
                      "autoRotateText" : true
                    },
                    "parameters" : {
                      "translation0" : {
                        "type" : "double",
                        "defaultValue" : 0.0736823855753528,
                        "interp" : "eioe"
                      },
                      "translation1" : {
                        "type" : "double",
                        "defaultValue" : 381.930045076285,
                        "interp" : "eioe"
                      },
                      "sourceCrop0" : {
                        "type" : "double",
                        "defaultValue" : 0.0,
                        "interp" : "eioe"
                      },
                      "sourceCrop1" : {
                        "type" : "double",
                        "defaultValue" : 0.0,
                        "interp" : "eioe"
                      },
                      "sourceCrop2" : {
                        "type" : "double",
                        "defaultValue" : 0.0,
                        "interp" : "eioe"
                      },
                      "sourceCrop3" : {
                        "type" : "double",
                        "defaultValue" : 0.0,
                        "interp" : "eioe"
                      },
                      "geometryCrop0" : {
                        "type" : "double",
                        "defaultValue" : 0.0,
                        "interp" : "eioe"
                      },
                      "geometryCrop1" : {
                        "type" : "double",
                        "defaultValue" : 0.0,
                        "interp" : "eioe"
                      },
                      "geometryCrop2" : {
                        "type" : "double",
                        "defaultValue" : 0.0,
                        "interp" : "eioe"
                      },
                      "geometryCrop3" : {
                        "type" : "double",
                        "defaultValue" : 0.0,
                        "interp" : "eioe"
                      }
                    },
                    "effects" : [

                    ],
                    "start" : 3772,
                    "duration" : 710,
                    "mediaStart" : 0,
                    "mediaDuration" : 710,
                    "scalar" : 1,
                    "metadata" : {
                      "AppliedThemeId" : "",
                      "clipSpeedAttribute" : false,
                      "default-scale" : "1",
                      "default-text" : "{\\rtf1\\ansi\\ansicpg936\\cocoartf2512\n\\cocoatextscaling0\\cocoaplatform0{\\fonttbl\\f0\\fnil\\fcharset134 PingFangSC-Regular;}\n{\\colortbl;\\red255\\green255\\blue255;\\red36\\green45\\blue52;}\n{\\*\\expandedcolortbl;;\\cssrgb\\c18431\\c23137\\c26667;}\n\\pard\\tx560\\tx1120\\tx1680\\tx2240\\tx2800\\tx3360\\tx3920\\tx4480\\tx5040\\tx5600\\tx6160\\tx6720\\pardirnatural\\qc\\partightenfactor0\n\n\\f0\\fs128 \\cf2 \\expnd0\\expndtw0\\kerning0\n\\ulnone \\'b5\\'da\\'d2\\'bb\\'b2\\'bd\\'a3\\'ac\\'c8\\'b7\\'b6\\'a8\\'c9\\'e8\\'bc\\'c6\\'b8\\'e5\\'b5\\'c4\\'bf\\'ed\\'b6\\'c8\\'b2\\'a2\\'bd\\'f8\\'d0\\'d0\\'c9\\'e8\\'d6\\'c3}",
                      "effectApplied" : "none",
                      "lockAspectRatio" : true
                    },
                    "animationTracks" : {

                    }
                  }
                ]
              },
              {
                "trackIndex" : 2,
                "medias" : [
                  {
                    "id" : 29,
                    "_type" : "Callout",
                    "def" : {
                      "kind" : "remix",
                      "shape" : "text-rectangle",
                      "style" : "basic",
                      "fill-color-blue" : {
                        "type" : "double",
                        "defaultValue" : 1.0,
                        "interp" : "linr"
                      },
                      "fill-color-green" : {
                        "type" : "double",
                        "defaultValue" : 1.0,
                        "interp" : "linr"
                      },
                      "fill-color-opacity" : {
                        "type" : "double",
                        "defaultValue" : 1.0,
                        "interp" : "linr"
                      },
                      "fill-color-red" : {
                        "type" : "double",
                        "defaultValue" : 1.0,
                        "interp" : "linr"
                      },
                      "height" : {
                        "type" : "double",
                        "defaultValue" : 409.002102931915,
                        "interp" : "linr"
                      },
                      "line-spacing" : {
                        "type" : "double",
                        "defaultValue" : 0.0,
                        "interp" : "linr"
                      },
                      "stroke-color-blue" : {
                        "type" : "double",
                        "defaultValue" : 0.56078431372549,
                        "interp" : "linr"
                      },
                      "stroke-color-green" : {
                        "type" : "double",
                        "defaultValue" : 0.686274509803922,
                        "interp" : "linr"
                      },
                      "stroke-color-opacity" : {
                        "type" : "double",
                        "defaultValue" : 1.0,
                        "interp" : "linr"
                      },
                      "stroke-color-red" : {
                        "type" : "double",
                        "defaultValue" : 0.0196078431372549,
                        "interp" : "linr"
                      },
                      "stroke-width" : {
                        "type" : "double",
                        "defaultValue" : 2.0,
                        "interp" : "linr"
                      },
                      "tail-x" : {
                        "type" : "double",
                        "defaultValue" : 182.071341886238,
                        "interp" : "linr"
                      },
                      "tail-y" : {
                        "type" : "double",
                        "defaultValue" : -103.719660194185,
                        "interp" : "linr"
                      },
                      "width" : {
                        "type" : "double",
                        "defaultValue" : 456.002076661798,
                        "interp" : "linr"
                      },
                      "word-wrap" : {
                        "type" : "double",
                        "defaultValue" : 1.0,
                        "interp" : "linr"
                      },
                      "fill-style" : "solid",
                      "horizontal-alignment" : "left",
                      "resize-behavior" : "resizeText",
                      "stroke-style" : "solid",
                      "text" : "简单三步：\n\n1. 设置设计稿宽度\n2. \"砌砖\" \n3. 生成代码 \n\n让我们开始吧!",
                      "vertical-alignment" : "center",
                      "font" : {
                        "color-blue" : {
                          "type" : "double",
                          "defaultValue" : 0.266666666666667,
                          "interp" : "linr"
                        },
                        "color-green" : {
                          "type" : "double",
                          "defaultValue" : 0.231372549019608,
                          "interp" : "linr"
                        },
                        "color-opacity" : {
                          "type" : "double",
                          "defaultValue" : 1.0,
                          "interp" : "linr"
                        },
                        "color-red" : {
                          "type" : "double",
                          "defaultValue" : 0.184313725490196,
                          "interp" : "linr"
                        },
                        "size" : {
                          "type" : "double",
                          "defaultValue" : 64.0,
                          "interp" : "linr"
                        },
                        "tracking" : {
                          "type" : "double",
                          "defaultValue" : 0.0,
                          "interp" : "linr"
                        },
                        "name" : "Montserrat",
                        "weight" : "Regular"
                      },
                      "textAttributes" : {
                        "type" : "textAttributeList",
                        "keyframes" : [
                          {
                            "endTime" : 0,
                            "time" : 0,
                            "value" : [{"name":"fontName","rangeEnd":92,"rangeStart":58,"value":"PingFang SC","valueType":"string"},{"name":"underline","rangeEnd":92,"rangeStart":0,"value":0,"valueType":"int"},{"name":"fontName","rangeEnd":56,"rangeStart":55,"value":"PingFang SC","valueType":"string"},{"name":"fontSize","rangeEnd":92,"rangeStart":0,"value":40,"valueType":"double"},{"name":"strikethrough","rangeEnd":92,"rangeStart":0,"value":0,"valueType":"int"},{"name":"fontName","rangeEnd":20,"rangeStart":16,"value":"Montserrat","valueType":"string"},{"name":"fgColor","rangeEnd":55,"rangeStart":16,"value":"(47,59,68,255)","valueType":"color"},{"name":"fgColor","rangeEnd":15,"rangeStart":0,"value":"(47,59,68,255)","valueType":"color"},{"name":"kerning","rangeEnd":55,"rangeStart":16,"value":0,"valueType":"double"},{"name":"kerning","rangeEnd":15,"rangeStart":0,"value":0,"valueType":"double"},{"name":"fgColor","rangeEnd":92,"rangeStart":56,"value":"(47,59,68,255)","valueType":"color"},{"name":"fontName","rangeEnd":55,"rangeStart":52,"value":"Montserrat","valueType":"string"},{"name":"fontName","rangeEnd":52,"rangeStart":46,"value":"PingFang SC","valueType":"string"},{"name":"fontItalic","rangeEnd":92,"rangeStart":0,"value":0,"valueType":"int"},{"name":"fontName","rangeEnd":16,"rangeStart":0,"value":"PingFang SC","valueType":"string"},{"name":"fontName","rangeEnd":58,"rangeStart":56,"value":"Montserrat","valueType":"string"},{"name":"kerning","rangeEnd":92,"rangeStart":56,"value":0,"valueType":"double"},{"name":"fgColor","rangeEnd":16,"rangeStart":15,"value":"(46,58,68,255)","valueType":"color"},{"name":"fontName","rangeEnd":41,"rangeStart":20,"value":"PingFang SC","valueType":"string"},{"name":"fontName","rangeEnd":46,"rangeStart":41,"value":"Montserrat","valueType":"string"},{"name":"fgColor","rangeEnd":56,"rangeStart":55,"value":"(46,58,68,255)","valueType":"color"},{"name":"fontWeight","rangeEnd":92,"rangeStart":0,"value":400,"valueType":"int"}],
                            "duration" : 0
                          }
                        ]
                      }
                    },
                    "attributes" : {
                      "autoRotateText" : true
                    },
                    "parameters" : {
                      "translation0" : {
                        "type" : "double",
                        "defaultValue" : -325.971480582493,
                        "interp" : "eioe"
                      },
                      "translation1" : {
                        "type" : "double",
                        "defaultValue" : 0.0970873786509401,
                        "interp" : "eioe"
                      },
                      "sourceCrop0" : {
                        "type" : "double",
                        "defaultValue" : 0.0,
                        "interp" : "eioe"
                      },
                      "sourceCrop1" : {
                        "type" : "double",
                        "defaultValue" : 0.0,
                        "interp" : "eioe"
                      },
                      "sourceCrop2" : {
                        "type" : "double",
                        "defaultValue" : 0.0,
                        "interp" : "eioe"
                      },
                      "sourceCrop3" : {
                        "type" : "double",
                        "defaultValue" : 0.0,
                        "interp" : "eioe"
                      },
                      "geometryCrop0" : {
                        "type" : "double",
                        "defaultValue" : 0.0,
                        "interp" : "eioe"
                      },
                      "geometryCrop1" : {
                        "type" : "double",
                        "defaultValue" : 0.0,
                        "interp" : "eioe"
                      },
                      "geometryCrop2" : {
                        "type" : "double",
                        "defaultValue" : 0.0,
                        "interp" : "eioe"
                      },
                      "geometryCrop3" : {
                        "type" : "double",
                        "defaultValue" : 0.0,
                        "interp" : "eioe"
                      }
                    },
                    "effects" : [

                    ],
                    "start" : 0,
                    "duration" : 150,
                    "mediaStart" : 0,
                    "mediaDuration" : 150,
                    "scalar" : 1,
                    "metadata" : {
                      "AppliedThemeId" : "",
                      "clipSpeedAttribute" : false,
                      "default-scale" : "1",
                      "default-text" : "{\\rtf1\\ansi\\ansicpg936\\cocoartf2512\n\\cocoatextscaling0\\cocoaplatform0{\\fonttbl\\f0\\fnil\\fcharset134 PingFangSC-Regular;\\f1\\fnil\\fcharset0 Montserrat-Regular;}\n{\\colortbl;\\red255\\green255\\blue255;\\red36\\green45\\blue52;}\n{\\*\\expandedcolortbl;;\\cssrgb\\c18431\\c23137\\c26667;}\n\\pard\\tx560\\tx1120\\tx1680\\tx2240\\tx2800\\tx3360\\tx3920\\tx4480\\tx5040\\tx5600\\tx6160\\tx6720\\pardirnatural\\qc\\partightenfactor0\n\n\\f0\\fs128 \\cf2 \\expnd0\\expndtw0\\kerning0\n\\ulnone \\'bc\\'f2\\'b5\\'a5\\'c8\\'fd\\'b2\\'bd\\'a3\\'ba\n\\f1 \\\n1. \n\\f0 \\'c9\\'e8\\'d6\\'c3\\'c9\\'e8\\'bc\\'c6\\'b8\\'e5\\'bf\\'ed\\'b6\\'c8\n\\f1 \\\n2. \"\n\\f0 \\'c6\\'f6\\'d7\\'a9\n\\f1 \"\\\n3. \n\\f0 \\'c9\\'fa\\'b3\\'c9\\'b4\\'fa\\'c2\\'eb\n\\f1 \\\n\n\\f0 \\'c8\\'c3\\'ce\\'d2\\'c3\\'c7\\'bf\\'aa\\'ca\\'bc\\'b0\\'c9}",
                      "effectApplied" : "none",
                      "lockAspectRatio" : false
                    },
                    "animationTracks" : {

                    }
                  }
                ]
              },
              {
                "trackIndex" : 3,
                "medias" : [
                  {
                    "id" : 30,
                    "_type" : "AMFile",
                    "src" : 8,
                    "trackNumber" : 0,
                    "attributes" : {
                      "ident" : "614c_0b30_eb6b_f0c40cb8e492181180f5fa03fcffd0ed",
                      "gain" : 1.0,
                      "mixToMono" : false
                    },
                      "channelNumber" : "0,1",
                    "effects" : [

                    ],
                    "start" : 0,
                    "duration" : 4482,
                    "mediaStart" : 0,
                    "mediaDuration" : 4482,
                    "scalar" : 1,
                    "metadata" : {
                      "clipSpeedAttribute" : false,
                      "effectApplied" : "none"
                    },
                    "animationTracks" : {

                    }
                  }
                ]
              }
            ]
          }
        }
      ]
    },
    "trackAttributes" : [
      {
        "ident" : "视频",
        "audioMuted" : false,
        "videoHidden" : false,
        "magnetic" : false,
        "matte" : 0,
        "solo" : false,
        "metadata" : {
          "IsLocked" : "False",
          "trackHeight" : "54"
        }
      },
      {
        "ident" : "注释",
        "audioMuted" : false,
        "videoHidden" : false,
        "magnetic" : false,
        "matte" : 0,
        "solo" : false,
        "metadata" : {
          "IsLocked" : "False",
          "trackHeight" : "54"
        }
      },
      {
        "ident" : "",
        "audioMuted" : false,
        "videoHidden" : false,
        "magnetic" : false,
        "matte" : 0,
        "solo" : false,
        "metadata" : {
          "IsLocked" : "False",
          "trackHeight" : "54"
        }
      },
      {
        "ident" : "",
        "audioMuted" : false,
        "videoHidden" : false,
        "magnetic" : false,
        "matte" : 0,
        "solo" : false,
        "metadata" : {
          "IsLocked" : "False",
          "trackHeight" : "54"
        }
      }
    ],
    "captionAttributes" : {
      "enabled" : true,
      "fontName" : "Arial",
      "fontSize" : 32,
      "backgroundColor" : [ 0, 0, 0, 204],
      "foregroundColor" : [ 255, 255, 255, 255],
      "lang" : "zh",
      "alignment" : 0,
      "defaultFontSize" : true,
      "opacity" : 0.5,
      "backgroundEnabled" : true,
      "backgroundOnlyAroundText" : true
    },
    "backgroundColor" : [ 0, 0, 0, 255],
    "metadata" : {
      "RecordingHeight" : "900",
      "RecordingWidth" : "1440"
    }
  },
  "metadata" : {
    "activeThemeId" : "e59eeb42-ccf0-4a36-bdf9-e630fdab686d",
    "firstMedia" : true,
    "hasNotifiedAboutHFRMedia" : false
  }
}
